<?xml version="1.0" encoding="UTF-8" standalone="no"?>
<svg width="128px" height="128px" viewBox="0 0 128 128" version="1.1" xmlns="http://www.w3.org/2000/svg" xmlns:xlink="http://www.w3.org/1999/xlink">
    <!-- Generator: Sketch 39.1 (31720) - http://www.bohemiancoding.com/sketch -->
    <title>Slice 3</title>
    <desc>Created with Sketch.</desc>
    <defs>
        <linearGradient x1="50%" y1="0%" x2="50%" y2="100%" id="linearGradient-1">
            <stop stop-color="#FFCC54" offset="0%"></stop>
            <stop stop-color="#DB4623" offset="100%"></stop>
        </linearGradient>
        <linearGradient x1="50%" y1="0%" x2="50%" y2="100%" id="linearGradient-2">
            <stop stop-color="#FFFFFF" offset="0%"></stop>
            <stop stop-color="#D8D8D8" offset="100%"></stop>
        </linearGradient>
        <circle id="path-3" cx="64" cy="64" r="54"></circle>
        <filter x="-50%" y="-50%" width="200%" height="200%" filterUnits="objectBoundingBox" id="filter-4">
            <feMorphology radius="1" operator="dilate" in="SourceAlpha" result="shadowSpreadOuter1"></feMorphology>
            <feOffset dx="0" dy="2" in="shadowSpreadOuter1" result="shadowOffsetOuter1"></feOffset>
            <feGaussianBlur stdDeviation="2" in="shadowOffsetOuter1" result="shadowBlurOuter1"></feGaussianBlur>
            <feComposite in="shadowBlurOuter1" in2="SourceAlpha" operator="out" result="shadowBlurOuter1"></feComposite>
            <feColorMatrix values="0 0 0 0 0   0 0 0 0 0   0 0 0 0 0  0 0 0 0.5 0" type="matrix" in="shadowBlurOuter1"></feColorMatrix>
        </filter>
    </defs>
    <g id="Page-1" stroke="none" stroke-width="1" fill="none" fill-rule="evenodd">
        <g id="Oval-23">
            <use fill="black" fill-opacity="1" filter="url(#filter-4)" xlink:href="#path-3"></use>
            <use stroke="url(#linearGradient-2)" stroke-width="2" fill="url(#linearGradient-1)" fill-rule="evenodd" xlink:href="#path-3"></use>
        </g>
        <g id="Group" transform="translate(33.000000, 36.000000)" fill="#FFFFFF">
            <path d="M0.392578125,45.3125705 C0.392578125,44.7591061 0.837802086,44.3081723 1.38970051,44.3053679 L61.2799145,44.0010457 C61.83061,43.9982475 62.277037,44.4394687 62.277037,44.9885412 L62.2770378,53.9701011 C62.2770378,54.5182781 61.8318139,54.9626633 61.2799154,54.9626633 L1.38970052,54.9626634 C0.839005029,54.9626634 0.392578125,54.5049505 0.392578125,53.9605276 L0.392578125,45.3125705 Z M52.5410939,51 C53.5883968,51 54.4374035,50.1045695 54.4374035,49 C54.4374035,47.8954305 53.5883968,47 52.5410939,47 C51.493791,47 50.6447842,47.8954305 50.6447842,49 C50.6447842,50.1045695 51.493791,51 52.5410939,51 Z" id="Combined-Shape-Copy"></path>
            <path d="M11.9157407,0.961855262 C12.0546056,0.430637269 12.6231661,0 13.1708478,0 L51.7662971,0 C52.3206087,0 52.8740311,0.442924235 52.9991868,0.975620257 L62.4010356,40.9923973 C62.5276301,41.5312175 62.1877409,41.9700533 61.6392013,41.9725768 L2.11347078,42.2464173 C1.56612675,42.2489353 1.23532824,41.8190414 1.37385381,41.2891213 L11.9157407,0.961855262 Z M44.9286908,14.9669551 C43.3644267,13.3926883 41.2034159,12.4189841 38.8164292,12.4189841 C34.4571335,12.4189841 30.8515314,15.6665629 30.2580415,19.8888605 C29.1811001,18.4451764 27.4659796,17.5112675 25.5341189,17.5112675 C22.2738443,17.5112675 19.6308698,20.1711424 19.6308698,23.4522648 C19.6308698,24.4058369 19.8541012,25.3069371 20.2508402,26.1055238 C18.203359,26.5243437 16.6792453,28.1223708 16.6792453,30.0297975 C16.6792453,32.2562734 18.7558681,34.0611885 21.3175124,34.0611885 C22.4502903,34.0611885 23.4882236,33.7082422 24.2936824,33.1219716 L24.3508591,33.1253282 L33.7281798,23.7480075 L33.7461286,23.7659563 C34.7996636,22.7813022 36.2111023,22.1791939 37.7622775,22.1791939 C40.9666617,22.1791939 43.5747289,24.7486549 43.6632066,27.9520058 C43.7186216,28.9002591 43.2286923,29.8594264 42.3226812,30.3825122 C41.0614816,31.110666 39.4716052,30.7180603 38.7715924,29.5056027 C38.0715797,28.2931451 38.5265114,26.7199688 39.787711,25.9918149 C40.084928,25.8202166 40.4003986,25.7108615 40.7181747,25.6598115 C40.4443651,25.6035773 40.1608993,25.5740495 39.8705808,25.5740495 C37.5418132,25.5740495 35.6539743,27.4739602 35.6539743,29.817619 C35.6539743,32.1612778 37.5418132,34.0611885 39.8705808,34.0611885 C39.9930906,34.0611885 40.1143801,34.0559305 40.2342387,34.0456264 L40.2227559,34.0571093 L40.2922414,34.0611885 L48.3037936,34.0611885 L48.3037936,34.0570225 C51.1170152,33.9456492 53.3637214,31.615239 53.3637214,28.7567266 C53.3637214,25.8271531 51.0039228,23.4522648 48.0929633,23.4522648 C48.0891668,23.4522648 48.0853712,23.4522688 48.0815766,23.4522769 C47.6102523,24.1509942 47.0405514,24.7770576 46.3925059,25.3103068 C47.0731832,24.0670074 47.4604724,22.6381718 47.4604724,21.1183016 C47.4604724,18.7160513 46.4929549,16.5412219 44.9286908,14.9669551 Z M11.6193176,18.7843383 C11.6193176,18.0812407 12.1856693,17.5112675 12.8842995,17.5112675 C13.2146112,17.5112675 13.5153535,17.6386787 13.7406497,17.847331 C13.732018,17.7364525 13.7276208,17.6243768 13.7276208,17.5112675 C13.7276208,15.1676087 15.6154597,13.267698 17.9442273,13.267698 C18.5477136,13.267698 19.1215892,13.3952878 19.6406733,13.6251257 C19.6341664,13.5068158 19.6308698,13.3876444 19.6308698,13.267698 C19.6308698,9.75220974 22.4626282,6.90234375 25.9557795,6.90234375 C29.4259683,6.90234375 32.243431,9.71486526 32.2803227,13.1984569 C31.1343896,14.2113431 30.2226701,15.4861574 29.6375146,16.929959 C28.5075642,16.2224794 27.173675,15.8138397 25.7449492,15.8138397 C22.8013403,15.8138397 20.2602985,17.5484545 19.0759972,20.0574092 L14.5707877,20.0574092 L12.8842995,20.0574092 C12.1856693,20.0574092 11.6193176,19.487436 11.6193176,18.7843383 Z" id="Combined-Shape-Copy-2"></path>
        </g>
    </g>
</svg>